<?xml version="1.0" encoding="UTF-8"?>
<svg id="uuid-3c29490a-eecc-4a5d-a359-72647ff1fe97" data-name="Layer 1" xmlns="http://www.w3.org/2000/svg" viewBox="0 0 4000 4000">
  <defs>
    <style>
      .uuid-41f4bd2d-014a-45f9-9955-3dc7ce673bb9, .uuid-59380351-ef8e-4da8-8218-4809211290b0 {
        stroke-width: 0px;
      }

      .uuid-59380351-ef8e-4da8-8218-4809211290b0 {
        fill: #fff;
      }
    </style>
  </defs>
  <rect class="uuid-59380351-ef8e-4da8-8218-4809211290b0" width="4000" height="4000"/>
  <g>
    <path class="uuid-41f4bd2d-014a-45f9-9955-3dc7ce673bb9" d="m2308.42,1317.67l14.57,85.02c31.94-3.9,63.9-7.55,95.93-10.68,19.33-1.89,38.69-3.5,58.05-5.09l-3.59-81.58c-26.66,1.51-53.35,3.08-80.02,4.93-.05-2.54-.23-4.81-.67-6.57-.4-1.58-.15-2.98.33-4.24-.83-5.44-1.78-10.8-2.99-15.83-.37-1.53-.75-3.11-.48-4.65.58-3.31,3.83-5.31,6.24-7.65,5.66-5.49,6.93-11.79,5.96-19.61-.97-7.82-4.1-15.18-6.61-22.66-5.01-14.92-7.21-32.57,1.89-45.42,1.9-2.68,4.25-5.07,5.79-7.97,2.07-3.9,2.46-8.61,1.23-12.84-.55-1.88-3.03-2.31-4.25-.78-3.54,4.45-9.15,7.46-12.54,12.18-1.91,2.66-3.05,5.78-4.38,8.78-2.06,4.63-4.62,9.05-7.62,13.14-1.07,1.46-3.35,1.03-3.77-.74-2.17-9.15-3.96-18.48-2.82-27.77.72-5.89,2.61-11.63,2.91-17.56.18-3.65-.39-7.53-1.99-10.78-1.03-2.08-4.1-1.51-4.57.77-1.82,8.66-9.02,16.44-10.97,25.45-2.27,10.5,2.53,22.69-1.61,32.02-.67,1.5-2.85,1.58-3.69.16-5.46-9.22-9.23-19.44-11.06-29.99-.86-4.93-1.32-10.03-3.49-14.53-1.44-3-3.86-5.72-6.78-7.15-1.9-.93-4.08.79-3.48,2.83,1.66,5.71,2.41,11.69,2.21,17.65-.23,6.87-1.7,13.9.21,20.51,2.17,7.53,8.45,13.36,10.58,20.91.25.87.43,1.83.07,2.66-1.12,2.64-4.73-.25-6.59-2.43-8.76-10.28-19.67-19.31-30.1-23.28-2.6-.99-7.35-2.69-9.4-.81-1.55,1.42-1.32,4.06-.1,5.77,1.22,1.72,3.14,2.77,4.94,3.85,14.21,8.55,24.75,25.04,37.26,35.91,2.95,2.56,6.12,5,9.82,6.22,1.78.58,5.12,1.4,6.9,1.98,9.04,2.96,11.95,9.35,15.87,18.01-3.95-9.43-13.25-16.39-23.41-17.53-1.57-.17-3.21-.23-4.63-.92-1.27-.61-2.26-1.67-3.22-2.7-4-4.25-8.49-8.5-14.17-9.87-5.68-1.38-12.73,1.28-14.2,6.93,10.56,4.11,19.71,11.74,25.66,21.39,3.05,4.95,1.95,10.45,5.74,14.86,3.09,3.6,10.48,6.39,13.07,10.37,2.65,4.07,3.54,9,4.38,13.79.46,2.67,1.12,9.83,1.79,18.61-1.25.75-2.36,1.65-3.4,2.62-14.97,1.26-29.91,2.72-44.83,4.32Z"/>
    <path class="uuid-41f4bd2d-014a-45f9-9955-3dc7ce673bb9" d="m2667.39,1859.83c11.85-106.29,29.63-262.85,42.53-385.6-9.41-1.11-18.79-2.38-28.26-2.8l-18.03-.99c-6.01-.29-12.05-.1-18.08-.18-7.75-.17-15.52.1-23.3.43l-34.91,403.59,40.73-5.29,39.32-9.15Z"/>
    <path class="uuid-41f4bd2d-014a-45f9-9955-3dc7ce673bb9" d="m2650.66,1378.51c12.94.04,25.89.26,38.87.96,9.89.39,19.8,1.34,29.73,2.5,3.16-32.93,5.42-59.35,6.34-75.92-29.42-3.72-58.98-5.45-88.59-5.98l-6.81,78.7c6.82-.09,13.63-.28,20.46-.26Z"/>
    <path class="uuid-41f4bd2d-014a-45f9-9955-3dc7ce673bb9" d="m2463.49,1482.88l-36.28,3.82-72.52,7.62-15.71,1.69,65.49,382.14,82.09.58c4.01.04,8.01-.02,12.02-.03l-17.48-397.69c-5.89.63-11.76,1.33-17.61,1.87Z"/>
    <path class="uuid-41f4bd2d-014a-45f9-9955-3dc7ce673bb9" d="m2510.32,1878.66c7.9-.11,15.85-.04,23.68-.47,7.87-.38,15.68-.49,23.57-1.1l23.72-2.04,3.85-.5,27.29-403.49c-1.03.04-2.07.09-3.1.12-12.11.74-24.19,1.5-36.34,2.48-24.2,1.91-48.8,4.15-73.09,5.71-1.33.07-2.65.25-3.98.34l6.18,398.97c2.74-.02,5.48.02,8.21-.03Z"/>
    <path class="uuid-41f4bd2d-014a-45f9-9955-3dc7ce673bb9" d="m2546.6,1138.93c-1.15-2.03-4.24-1.65-4.59.65-.55,3.57.08,7.44,1.36,10.87,2.08,5.56,5.61,10.45,8.09,15.85,3.9,8.51,5.01,17.95,5.71,27.33.14,1.8-1.91,2.91-3.37,1.84-4.1-3-7.87-6.43-11.24-10.22-2.17-2.45-4.21-5.08-6.83-7.04-4.66-3.48-10.92-4.65-15.64-7.82-1.62-1.09-3.86.08-3.81,2.03.11,4.39,1.9,8.77,5.05,11.86,2.35,2.3,5.31,3.87,7.93,5.85,12.56,9.49,15.79,26.98,15.53,42.71-.13,7.88-.89,15.85.55,23.6,1.44,7.75,4.56,13.37,11.61,16.89,3,1.5,6.71,2.43,8.26,5.41.73,1.39.84,3.01.95,4.58.4,5.61,1.22,11.47,2.2,17.38-25.07.82-50.14,2.13-75.16,3.53l1.26,81.16c26.21-2.01,52.44-3.71,78.72-4.96,15.14-.7,30.31-1.19,45.48-1.52l5.34-78.97c-5.86-.03-11.73-.07-17.6-.03-2.11-8.91-3.76-16.38-4.13-19.14-.65-4.82-1.3-9.79,0-14.47,1.27-4.58,7.47-9.47,9.33-13.84,2.28-5.36-.43-10.26.98-15.91,2.75-10.99,9.16-21.03,17.99-28.15-3.11-4.94-10.64-5.34-15.63-2.31-4.99,3.03-7.99,8.43-10.52,13.69-.61,1.27-1.23,2.58-2.26,3.55-1.15,1.09-2.69,1.64-4.14,2.28-9.34,4.16-16.1,13.61-17.01,23.79,1.12-9.44,1.96-16.42,9.68-21.96,1.52-1.1,4.46-2.88,5.98-3.98,3.17-2.28,5.45-5.57,7.48-8.9,8.64-14.14,13.7-33.06,24.65-45.5,1.39-1.58,2.91-3.16,3.55-5.17.64-2,.07-4.59-1.84-5.47-2.53-1.17-6.53,1.89-8.72,3.62-8.74,6.93-16.41,18.85-21.65,31.29-1.11,2.64-3.67,6.48-5.54,4.31-.59-.68-.7-1.65-.73-2.56-.25-7.84,3.97-15.3,3.76-23.13-.18-6.87-3.71-13.13-6-19.61-1.99-5.62-3.08-11.54-3.23-17.49-.05-2.12-2.64-3.11-4.18-1.64-2.36,2.25-3.84,5.58-4.3,8.87-.7,4.95.4,9.95,1.07,14.91,1.44,10.62.94,21.49-1.47,31.93-.37,1.6-2.47,2.19-3.56.96-6.77-7.63-5.88-20.71-11.22-30.03-4.58-7.99-13.8-13.22-18.15-20.93Z"/>
    <path class="uuid-41f4bd2d-014a-45f9-9955-3dc7ce673bb9" d="m2882.61,1784.52c12.76-14.43,26.93-27.52,40.6-41.1,31.55-31.35,37.86-87.14,71.16-125.99-20.41,15.03-40.74,14.86-61.24,45.09-3.48-17.45,6.82-34.77,19.2-47.55,12.38-12.78,27.36-23.29,37.17-38.14,21.22-32.11,9.27-81.2-24.34-99.96,12.59,29.5-6.55,68.05-37.66,75.86,7.91-39.56,14.02-86.01-13.58-115.44-7.73-8.24-17.6-14.37-24.66-23.19-7.06-8.82-10.69-22.1-4.08-31.26-17.31,6.01-20.8,29.97-14.26,47.08,6.54,17.12,19.63,31.17,25.79,48.43,6.15,17.26,1.42,41.28-16.26,46.1,2.2-19.85-5.64-40.56-20.43-53.98-14.79-13.42-36.16-19.22-55.71-15.1,36.41,16.67,59.1,59.07,52.78,98.61-3.42,21.41-14.21,40.86-20.69,61.55-6.49,20.69-7.98,45.2,5.45,62.23,7.59,9.63,18.86,15.46,28.74,22.72,9.88,7.26,14.92,11.1,15.12,23.36,3.27,11.61-5.41,18.66-13.95,27.04-8.21,8.06-17.36,14.99-27,21.26-38.14,24.77-62.33,69.31-62.91,114.69-.54,42.44,18.06,82.4,33.29,122.02s27.4,83.69,13.97,123.95c-14.6,43.77-56.35,72.87-98.93,90.64-83.27,34.75-179.49,37.32-264.49,7.07l16.82-7.22c-28.36-1.14-50.78-33.47-41.9-60.43,21.98,15.42,56.49,7.84,69.98-15.38-41.82,5.4-84.95-26.81-91.63-68.45,24.76,13.43,58.27,8.06,77.59-12.45-21.27-5.74-41.33-26.22-58.82-51.56,73.72-.06,145.99-12.93,217.16-37.6.41-6.12,2.03-22.07,4.48-44.82l-29.72,10.21-42.42,10.86-6.89,1.27-2.95,34.11,2.3-33.99-35.47,6.54-40.77,5.13.56,35.96-1.57-35.83-1.55.19-43.48,3.4-36.89,1.47,3.76,21.93c-.14-.24-.28-.47-.42-.7l-3.99-21.2-5.97.24-1.53.02c-1.78-3.43-3.51-6.85-5.18-10.26,3.59-.02,7.19-.05,10.79-.1.28,0,.55-.01.83-.02,27.74-.4,55.6-1.59,83.25-4.05.43-.04.85-.09,1.28-.13,25.93-2.35,51.65-5.86,76.93-10.8.27-.05.54-.1.81-.15,27.03-5.32,53.49-12.39,79.11-21.56,2.83-1.01,5.69-1.94,8.49-3.01l6.8-57.91c-3.14.78-6.04,1.48-8.82,2.16-33.79,8.2-42.67,9.3-79.77,13.04-.69.07-1.37.14-2.08.21-4.26.43-5.6.58-46.15,4.03-11.34.96-22.68-.1-34.03-.98-1.96-.15-3.92-.08-5.88-.11-9.55-.12-19.1-.31-28.64-.5-21.73-.44-43.46-.88-65.19-1.33-.74-.01-1.47-.03-2.2-.05-9.76-.2-19.52-.4-29.28-.59-.38-.63-.78-1.33-1.19-2.19l29.99.21-71.75-381.22-12.04,1.29-16.29,2.03c-.78-3.34-1.58-6.68-2.42-9.99,9.65-1.03,19.31-2.05,28.92-3.07,2.9-.31,5.79-.61,8.67-.91,61.4-6.42,118.52-12.02,143.41-13.98,3.97-.31,7.14-.54,9.36-.65,1.97-.1,3.77-.24,5.72-.35,43.14-2.41,80.47-6.14,117.14-7.62,3.32-.13,6.63-.21,9.95-.3,30.74-.86,61.63.3,95.49,5.49.08-.06.12-.09.19-.14l9.06-79.96c-2.78-.45-5.88-.81-8.91-1.2-23.44-2.98-53.95-4.16-88.94-3.96-3.77.02-7.57.05-11.44.11-37.81.53-80.12,2.53-123.82,5.52-5.79.4-11.58.8-17.4,1.23-51.77,3.82-104.7,8.9-153.75,14.46-3.34.38-6.7.75-10,1.13-11.7,1.36-23.07,2.74-34.2,4.13-.14-.63-.29-1.25-.42-1.88,11.4-1.52,22.81-2.92,34.22-4.34l-16-85c-24.64,2.82-49.17,6.27-73.58,10.48-1.57-4.5-3.4-13.46-5.96-15.57,11.06,9.09,26.46,12.63,40.38,9.29,13.92-3.34,26.03-13.48,31.77-26.6-12.4,10.33-31.75,3.92-43.91-6.69-12.16-10.61-21.27-24.96-35.39-32.78-8.23-4.57-17.69-6.6-25.9-11.21-8.21-4.61-15.45-13.19-14.06-22.5,25.36,13.69,59.34,9.01,80.05-11.02-22.87,5.31-44.88-10.18-63.27-24.78-23.47-18.62-47.13-37.43-66.12-60.61,12.5,1.56,25.51,3.08,37.46-.93,11.95-4.01,22.46-15.29,21.22-27.83-18.72,8.23-41,3.34-58.83-7.02-15.89-9.31-26.01-26.53-26.33-44.94,0-.36-.01-.71-.01-1.07-.06-8.8-2.87-17.36-3.74-26.13,3.24-8.28,5.34-15.18,6.41-20.93,8.76-15.74,12.11-34.6,11.42-52.79-.9-23.92-8.01-47.13-15.06-70.02-.32,3.44-1.11,6.73-2.1,9.96.75-7.73,1.84-14.58,3.32-19.67-3.67,11.01-15.54,16.45-22.48,25.76-3.4,4.56-5.78,10-8.69,14.34-20.83-32.99-44.74-56.83-78.8-67.1-10.35-3.12-14.52-15.44-8.09-24.14.12-.17.25-.33.37-.5,11.26-15.22,26.17-27.5,43.65-34.78,70.99-29.55,153.02-37.94,225.75-44.08,41.3-3.49,82.35-9.52,122.66-19.17,51.45-12.31,109.24-32.09,147.34-73.21,25.25-27.24,40.94-64.91,35.75-101.69-4.83-34.24-26.34-63.19-48.42-90.14-5.23-26.06-18.35-50.18-39.73-65.56,15.52,50.02,6.57,107.02-23.54,149.87-21.87,31.13-53.7,53.91-87.1,72.15-174.77,95.47-383.14,41.5-492.62,185.43-42.69,7.3-85.5,14.63-123.96,20.59,7.6-17.62,38.58-48.15,48.39-66.72-24.22,26.85-54.8,51.81-79.01,78.66.18-.79-8.79,6.05-8.62,5.26.18-.79,8.14-8.58,8.32-9.37,1.53.54,6.12-6.15,4.95-7.28-75.8,55.35-118.28,97.46-182.54,139.5,36.55-68.95,83.5-111.91,147.36-156.76,61.38-43.11,121.26-67.15,172.43-113.16,4.23-3.8-19.68,5.68-15.29,1.62,24.76-22.91,42.07-45.27,55.24-66.6,11.47-10.51,24.58-19.22,38.81-25.52,9.6-4.25,19.98-7.63,27.5-14.97,6.12-5.97,9.73-13.97,13.2-21.78-9.73,14.58-24.33,25.85-40.9,31.57-10.21,3.53-22.17,5.72-28.1,14.75-.54.83-1.58,1.83-2.84,2.91,11.84-21.35,20-41.51,27.88-59.92,23.5-16.02,53.26-22.37,81.84-26.71,34.13-5.18,69.88-9.21,98.79-28.08-28.29,5.71-56.58,11.43-84.86,17.15-16.21,3.27-32.41,6.55-48.64,9.71-12.37,2.41-24.95,4.82-36.17,10.58-1.58.81-3.03,1.87-4.53,2.83,1.86-4.07,3.75-8.07,5.73-11.93,9.28-18.07,19.57-35.6,30.77-52.51,7.57-4.22,15.93-7.27,24.35-9.42,14.96-3.82,30.45-5.74,44.91-11.16,14.46-5.42,28.27-15.13,33.95-29.48-7.71,14.59-24.34,22.13-40.42,25.87-16.08,3.75-32.94,4.82-48.09,11.4-3.23,1.4-6.33,3.08-9.31,4.95,20.77-30.22,44.45-58.38,70.78-83.8,10.51-1.02,21.03-1.88,31.54-2.68,45.64-3.46,106.98,5.74,135.47-20.16-31.16,14.5-67.41,8.32-101.78,8.19-18.09-.07-36.08,1.68-54,4.19,30.52-27.83,64.2-52.17,100.53-72.08-38.62,18.45-76.28,43.97-110.74,73.65-12.16,1.89-24.3,3.98-36.4,6.16-37.19,6.72-74.58,13.59-110.58,24.85,25.19-20.28,49.26-42.15,74.82-61.99,60.2-46.73,129.59-81.58,203.02-101.98-57.54,2.46-114.23,22.08-160.99,55.7-3.01-5.59-3.65-12.35-2.33-18.54-29.41,41.46-67.12,77.13-110.41,103.79,42.22-77.42,105.36-143.29,180.93-188.73-58.81,22.67-110.99,62.25-148.66,112.79-4.71-19.96-9.41-39.92-14.12-59.88,5.78,42.76-6.91,86.14-25.8,124.93-4.29,8.8-8.96,17.39-13.77,25.92-42.51,22.66-85.01,45.32-127.52,67.98,11.66-19.69,23.32-39.39,34.97-59.09-48.49,60.54-133.21,128.3-194.18,175.47,37.65-58.1,103.88-148.09,157.58-217.9,15.94-20.71,20.6-49.88,41.82-65.14,31.12-22.38,81.3-17.34,100.79-50.35-31.71,8.91-63.41,17.81-95.12,26.71,60-45.62,120.01-91.23,180.01-136.85-43.28,13.31-100.84,54.99-135.28,84.38,11.84-17.1,15.73-43.33,18.69-54.87-14.59,39.43-48.74,84.31-82.19,109.78,4.01-22.97-8.35-33.96-7.26-48.33.53,75.51-51.49,139.9-100.75,197.13-5.42-24.11-5-49.51,1.24-73.42-13.62,19.18-19.79,43.21-18.19,66.65,2.05,30.15-6.54,60.29-25.85,83.53-46.91,56.46-85.72,119.66-114.74,187.09-18.15-12.73-27.79-36.54-23.62-58.32,4.17-21.78,21.92-40.34,43.49-45.47,3.99-17.34.7-36.24-8.92-51.21,7.21,24.72-24.06,41.48-38.67,62.7-16.41,23.83-11.23,55.6-9.08,84.45,6.07,81.63-19.08,165.18-69.2,229.89-26.35-14.81-3.42-55.93-12.04-82.48-18.36,27.19-21.13,63.83-8.45,93.94,5.43,12.9,6.99,27.18,2.25,40.35-11.64,32.28-29.34,62.37-51.98,88.16l-2.17-139.6c-6.83,37.3-13.67,74.6-20.5,111.91-1.71,9.32-3.42,18.7-3.42,28.18,0,14.66,4.1,29.19,3.14,43.82-.2,3.07-.8,6.17-1.63,9.22-17.84-9.83-35.54-13.89-51.01-5.8-21.03,7.93-8.06,36.82-27,48.93-5.31,3.39-11.98,3.55-18.07,5.16-21.2,5.62-25.42,26.69-15.96,46.47-30.83,7.74-35.32,32.62-18.05,59.31-8.86-1.49-25.61,20.1-25.1,29.07.51,8.97,5.27,17.13,7.05,25.94,4.84,24-23.01,58.04-42.06,73.42-10.23,8.26-28.15,31.61-36.15,42.03-8,10.43,23.53-14.4,28.65-2.29-12.81,36.61-75.07,88.73-113.1,96.3l.99,25.45c38.04-14.71,73.42-36.18,104.15-62.99-38.02,47.01-56.14,113.45-107.03,147.09l23.32,48.18,122.94-179.1c8.05,30.4-9.91,60.9-25.97,87.94-16.06,27.04-31.26,60.15-18.05,88.7,35.08-27.23,44.4-75.2,55.29-118.25,19.33-76.4,51.1-149.63,93.69-215.94,5.78,3.28,11.22,2.04,17.12,5.11,77.69,40.52,78,79.52,107.07,131.5-20.47,2.64-23.45,2.17-34.23-15.44-4.27,20.94,9.23,42.05,26.71,54.36,17.48,12.3,19.96,8.25,39.83,16.12,19.87,7.88,39.91,19.01,50.28,37.7-19.34,12.87-32.52,19.1-51.49,5.7-3.2,24.7,22.04,43.48,45.58,51.62,42.33,14.64,49.55,16.8,65.3,37.77-9.65,15.31-28.92,23.1-54,10.31,4.56,15.88,19.29,27.2,35.05,32.17,15.76,4.96,25.89,2.58,42.41,2.18l71.52-2.55c-5.59,43.83-37.39,58.02-57.72,51.05,11.58,20.19,38.64,26.86,61.43,22.17,22.8-4.69,42.6-18.2,62.38-30.47,19.78-12.27,41.3-23.9,64.57-24.08,0,0,4.71,35.47-34.87,62.27-13.52,9.16,42.88,12.17,110.16-44.88,31.28-26.52,31.66-40.36,72.53-36.92-31.08,70.72,35.01,142.87,75.64,208.57,14.99,24.25,6.88,52.72-13.75,114.6-10.4,31.22-10.95,43.74-24.07,73.92-169.54-27.46-300.01-113.11-448.66-58.45-30.97,11.39-65.51,37.78-81.12,66.85-14.86,27.69-15.31,66.31-42.65,81.8,30.86,4.95,63.99-11.38,78.86-38.86-.48,50.26-24.27,99.83-63.18,131.64,28.21,16.87,70.09,2.24,81.65-28.53,11.02,16.38,13.48,38.21,6.36,56.63-7.12,18.42-23.61,32.93-42.78,37.65,15.94,8.88,36.16,9.6,52.7,1.89,16.54-7.71,28.98-23.67,32.43-41.58,22.17,76.32,57.13,149.57,106.44,211.9,18.57,23.47,39,45.8,53.3,72.1,14.3,26.3,22,57.87,12.95,86.4-12.09,38.11-129.34,205.63-181.52,235.8-17.87,10.33-38.84,15.23-55.11,27.94-22.04,17.21-31.74,45.75-37.15,73.19-5.41,27.44-7.84,56.01-20.04,81.18-12.2,25.17-37.61,46.71-65.42,43.73,37.73,19.66,75.15-10.22,100.68-44.26-15.47,37.82-23.04,63.39-51.11,66.7,81.57,33.47,177.37-41.45,259.8-10.15,9.49-16.42,7.1-37.07,1.91-55.31-5.2-18.24-12.96-36.13-13.42-55.08-.31-12.66,6.03-40.55,22.06-43.08,17.56-2.76,38.62,12.69,40.77,46.8,28.79-39.27,7.62-96.76,44.13-126.31,3.45,27.55,29.36,37.19,34.91,74.1,30.55-54.1-24.98-121.15,59.77-164.12-15.09,27.62,12.29,55.35,43.07,61.91-21.98-23.66-17.92-62.21-2.67-90.68,15.25-28.47,39.42-51.11,56.97-78.23,17.55-27.11,27.93-63.03,12.44-91.37-84.84-38.44-139.66-165.3-151.06-257.74,93.97,48.13,162.94,112.9,270.45,119.18,9.14,89.69,56.29,205.08,98.37,284.82,20.44,38.73,45.36,81.18,87.64,92.57,24.48,6.59,50.41,1.25,75.74,2.12,25.33.87,53.98,11.34,61.92,35.42,11.53-16.3,8.95-40.99-5.7-54.55,28.68,4.92,31.26-38.92,113.93-15.65-8.69-29.99-43.32-49.73-73.55-41.94,18.47-20.39,51.29-26,75.48-12.9-11.47-12.96-27.13-22.15-44.03-25.86,49.69-18.66,119.21-59.53,159.7-93.85,8.53,50.64,31.27,98.55,71.99,129.84,40.72,31.29,83.35,72.54,80.78,123.83l.21,26.52c-17.87,10.33-38.84,15.24-55.11,27.94-22.04,17.21-31.74,45.75-37.15,73.19-5.41,27.44-7.84,56.01-20.04,81.18-12.19,25.17-37.61,46.71-65.42,43.73,37.73,19.66,75.15-10.22,100.68-44.26-15.47,37.82-23.04,63.39-51.11,66.7,81.57,33.47,177.37-41.45,259.8-10.15,9.49-16.42,7.1-37.07,1.9-55.31-5.2-18.24-12.96-36.13-13.42-55.09-.91-37.52,41.57-60.24,62.64-87.45-22-13.02-34.62-60.83-32.65-86.31,39.3-12.73,70.12-37.99,60.84-78.24-13.85,24.37-44.09,17.31-60.84-.84-16.74-18.15-31.24-75.14-43.43-96.61,26.22,10.84,60.14-6.71,66.43-34.38-22.79,11.15-49.51-4.64-67.61-22.41-18.1-17.77-35.83-39.52-60.95-43.13,26.98,1.09,53.69-16.63,63.19-41.91-36.84,7-72.92-12.8-105.21-31.87-23.58-13.93-47.48-28.1-66.41-47.89-12.7-13.27-22.9-28.81-36.04-41.64-13.14-12.83-30.45-23.1-48.78-21.94-34.48,50.97-79.92,94.47-132.34,126.7-6.96,4.28-15.38,8.49-22.94,5.4-10.28-4.2-25.83-18.89-29.52-29.36-20.63-58.45-27.5-89.39-21.78-152.52,36.36-2.28,73.06.92,108.48,9.45,3.18-15.6-14.49-26.33-28.36-34.15-13.86-7.83-27.67-26.3-16.49-37.63,25.28,7.31,111.68,20.97,127.75,26.33,27.5,9.17,38.09,9.21,55.01,4.59,13.86-3.78,23.05-3.46,37.19-6.01,30.37-5.46,63.05,11.51,91.68,0-33.46,9.99-65.82-38.95-97.85-25.05,17.05-9.22,36.6-13.76,55.97-13.01,19.42.75,38.38,6.69,57.81,7.11,19.43.42,46.88-2.59,49.85-23.8-5.87,16.1-29.38,14.76-44.88,7.46-15.5-7.3-33.2-17.66-48.42-9.77,3.89-3.91,8.22-7.35,12.81-10.39,7.9-3.42,15.7-7.05,23.42-10.85,10-2.93,20.5-4.16,30.88-3.23,11.45,1.03,22.83,4.4,34.25,3.15,25.04-2.75,42.81-25.92,55.74-47.08-1.58.73-3.08,2.01-4.61,3.65-11.69,12.55-29.7,17.07-46.61,14.22-5.68-.96-11.36-1.92-17.04-2.88.33-.26.7-.47,1.03-.74.31-.25.61-.49.92-.74,11.12-9.02,24.27-14.65,38.3-17.51,1.74-.36,3.46-.82,5.14-1.43,14.66-5.37,22.79-20.65,29.61-34.7-3.62,4.27-9.63,11.81-17.11,13.15-6.43,1.15-13.02.62-19.56.83,8.87-13.41,15.64-28.06,19.14-43.77,8.29-37.2-1.79-76.06-15.76-111.52-13.59-34.5-30.99-67.78-39.76-103.77-9.58-39.32,4.44-97.57,30.24-128.74,7.44-8.99,14.8-17.55,22.31-26.05Zm-454.02-1168.08c33.77-29.59,63.57-66.22,74.31-109.82,3.81-15.48,4.46-31.93,2.28-47.91,17.4,39.87,21.95,86.62,1.39,124.44-19.51,35.89-57.6,57.51-95.48,72.81-29.13,11.76-59.11,20.82-89.53,28.52,38.81-17.2,75.11-40.05,107.03-68.03Zm-574.44,185.68c-2.39,3.46-4.77,6.96-7.05,10.63-8.05-2.78-16.32-5.2-24.66-6.68,9.3-.7,20.19-2.14,31.71-3.95Zm-.42-164.02c-47.29,54.05-106.14,88.45-165.27,129.22-56.97,39.28-108.43,85.7-155.25,139.72,48.26-99.85,135.7-180.1,239.3-219.65-37.93,9.21-74.2,24.82-107.22,45.61,7.42-6.96,14.83-13.92,22.25-20.88,23.36-21.92,47.65-44.43,77.87-55.07,27.21-9.59,60.06-10.28,78.95-32.09-19.53,14.51-46.72,17.99-69.27,8.86,50.56-22.11,97.13-53.18,137.22-91.1-11.99,34.47-34.01,67.32-58.58,95.39Zm-278.63-2.86c37.15-54.51,83.19-104.12,140.12-137.44,42.9-25.11,91.01-40.46,133.53-66.2,3.01-1.82,5.91-3.8,8.86-5.72-10.02,16.28-20.16,32.51-29.55,49.16-16.44,29.14-35.71,52.12-56.34,78.46-20.63,26.34-44.97,49.86-74.06,67.11-1.42-29.84,12.88-66.07,39.55-79.54-32.75,9.61-56.44,42.7-57.07,76.51-.22,11.78-3.55,23.43-11.47,32.15-2.98,3.28-6.27,6.2-10.07,8.53-9.09,5.57-40.06,31.97-34.67,6.56,3.76-8.47,8.43-26.95,11.25-34.87-5.01,7.93-14.23,25-15.05,32.58-31.88,58.69-86.69,103.98-139.76,146.22,28.72-59.38,57.59-119.01,94.74-173.52Zm-91.84,228.1c18.26-32.2,37.16-65.19,65.85-88.6,23.62-19.27,53.29-30.79,83.66-33.12-13.37-1.14-24.91-1.95-35.67-6.74-6.16-2.75-6.9-11.12-1.2-14.73,96.78-61.36,228.62-182.16,286.55-311.67.54-.41,1.05-.85,1.58-1.26,22.28-1.07,44.2-9.52,65.93-15.84,26.74-7.78,54.28-12.08,82-15.12-39.97,36.42-74.8,78.62-99.8,122.88,1.13-22.15-9.67-38.78-18.59-53.85,11.43,29.86,10.15,60.62,1.09,90.35-54.51,41.16-114.25,75.18-170.71,113.78-39.62,27.09-78.16,57.16-110.74,92.19-.15.01-.3,0-.45.01.14.01.29,0,.42.02-14.5,15.59-27.68,32.27-39.37,50.02-14.49,15.31-27.7,31.81-39.26,49.45-23.04,35.14-39.78,73.96-60.01,110.78-13.88,25.27-29.49,49.59-46.56,72.82-5.07,1.61-10.23,2.92-15.52,3.53,26.58-58.69,53.15-117.38,79.73-176.08-49.05,52.75-59.02,132.7-106.51,186.86-15.48,17.65-34.51,32-49.26,50.26-1.84,2.28-3.62,4.66-5.3,7.11,44.04-77.69,88.08-155.37,132.12-233.06Zm-130.26,264.31c23.43-37.07,53.92-69.57,89.33-95.43-26.34,34.8-56.15,66.95-88.83,95.88-.17-.15-.33-.3-.5-.45Zm567.43,253.78c-9.72,14.8-25.48,25.3-42.21,31.08-83.76,28.96-159.39,101.16-225.34,72.66,6.16,18.48,26.38,31.13,45.69,28.59-23.76,12.85-52.53-1.93-75.07-16.8-75.31-49.7-148.65-106.14-198.23-181.53-10.64-16.18-20.47-35.12-16.53-54.08,2.22-10.7,8.67-20.15,11.03-30.82,6.07-27.42-15.44-52.54-35.29-72.42-5.18-5.19-10.79-10.81-16.67-16.52,37.15-24.19,66.63-58.72,95.24-92.8,30.84-36.72,65.03-70.3,103.74-98.58,55.91-40.84,96.7-22.55,137.19-11.3-17.79-14.04-50.4-17.63-71.99-33.12,48.38-63.39,132.42-95.76,211.13-86.33-1.4,2.4-2.86,4.66-4.22,7.15-40.12,73.65-113.41,79.18-105.53,153.13,1.35,12.63-18.31,17.73-30.94,25.03-28.75,16.62-9.63,1.38-61.99,66.1-4.17,5.15-.14,12.92,6.47,12.33,30.03-2.67,36.11,15.78,52.9,1.63,3.02,20.2,3.09,41.24,1.4,61.59-.57,6.86-.91,14.97,4.47,19.26,3.66,2.93,8.95,2.96,13.41,1.52,2.72-.88,5.24-2.23,7.72-3.66.94,2.67,1.98,5.3,3.33,7.79,2.24,4.11,5.36,7.86,9.46,10.11-2.2-8.19-1.63-17.05,1.43-24.97.28-.11.56-.19.84-.3,1.48,4.22,4.69,7.82,8.81,9.6.2-4.76,2.13-9.31,5.05-13.07,2.46-.28,4.95-.45,7.53-.38,9.8-.29,15,2.88,14.43,11.32-.51,7.54-3.67,9.78-10.03,15.26-10.66,9.19-24.37,7.82-38.19,10.55-13.81,2.73-28.11,5-40.21,12.2-17.09,10.19-27.28,28.71-35.31,46.91-8.03,18.2-15.03,37.45-28.48,52.11-13.45,14.67-35.66,23.6-53.64,15.08,22.75,21.51,62.98,20.48,84.59-2.18,14.88-15.59,20.62-38.32,35.96-53.46,17.84-17.61,55.89-33.18,80.78-36.1l-16.31,28.42c-4.82,8.43,2.91,18.37,12.24,16.68l10.53-1.91c-14.16,16.35-24.91,48.42-19.54,69.38,4.32,16.86,14.91,31.28,22.79,46.79,7.88,15.51,13.03,34.24,5.86,50.09,20.61-7.06,35.45-28.33,34.96-50.11.89,6.81,1.78,13.62,2.67,20.44,11.4-6.39,14.42-21.38,14.37-34.45-.05-13.07-1.76-26.99,4.47-38.48,7.03-12.97,20.77-17.97,35.46-22.26,3.91-1.14,9.79-1.65,15.44-1.95,14.67-.78,28.88,8.56,32.02,23.6,3.42,17.36,2,36.39-7.71,51.18Zm-147.73-360.17c-4.6-2.27-8.66-9.24-6.04-15.27-7.6,4.49-18.9-.04-21.29-8.54.28.26.57.51.87.76,3.45,2.87,8.12,3.41,12.42,2.13,8.43-2.51,49.75,4.81,58.7,1.9-7.56,2.69-14.13,8.08-18.25,14.97-2.76,4.62-4.55,10-8.56,13.6-4.67,4.18-11.82,5.06-17.64,2.74-5.82-2.32-10.27-7.5-12.38-13.4,3.36,3.47,7.57,7.27,13.14,8,8.93,2.19,11.19-5.58,14.33-10.86-3.95,3.28-7.79,7.67-15.28,3.98Z"/>
  </g>
  <g>
    <path class="uuid-41f4bd2d-014a-45f9-9955-3dc7ce673bb9" d="m1217.67,3468.24c.09,14.96-13.56,27.66-28.38,29.77-14.82,2.11-30.62-9.13-40.36-20.49-13.75-16.04-22.95-30.89-30.94-43.55-20.5-32.45-34.38-46.99-60.17-78.3,16.28-25.15,43.96-42.6,73.68-46.42-24.75-5.26-47.07-21.11-60.2-42.75-13.12-21.64-16.87-48.76-10.1-73.14-16.14,24.28-32.42,48.72-52.82,69.55-12.62,12.88-27.02,24.36-42.88,32.85l.63-206.49c.69-11.72,4.7-22.79,11.45-32.39,6.76-9.6,17.82-16.62,29.56-16.53,11.74.09,23.49,8.41,25.66,19.94,2.53,13.43-7.3,25.81-10.39,39.13-4.2,18.17,6.04,38.61,23.11,46.11,17.07,7.5,39.06,1.22,49.59-14.16-19.06,5.51-41.15-10.39-41.98-30.21-.57-13.53,7.15-26.18,7.79-39.71.84-18.03-11.93-35.13-28.64-41.95-16.71-6.82-36.3-4.3-52.29,4.06-15.99,8.36-28.69,22.05-38.59,37.14,2.32-36.5-14.52-75.62-38.94-102.85-24.42-27.24-61.55-43.19-97.99-40.03-36.44,3.16-71.02,26.19-86.13,59.5-15.11,33.31-16.46,75,8.87,101.4,12.33,12.86,29.22,24.07,55.13,19.4,17.54-3.16,31.81-22.85,25.24-39.41-3.2-8.06-10.3-13.86-14.97-21.17-4.67-7.31-6.09-18.45.93-23.54-15.59,11.95-31.95,38.08-6.45,58.13-8.36,3.91-20.52-3.79-27.66-9.64-7.14-5.85-11.34-14.68-13.29-23.69-4.88-22.54,4.05-47.51,22.12-61.84,18.07-14.33,44.42-17.34,65.25-7.45,20.84,9.89,30.61,27.42,30.94,50.48l.16,451.73c-27.37,18.42-50.49,44.06-65,73.69,19.38-18.16,44.21-32.25,70.77-32.32,26.56-.06,54.1,17.09,59.85,43.02,17.73-36.2,47.92-64.65,86.62-75.91-8.69-15.95-33.67-18.72-51.83-18.72l.16-54.4c29.47,17.82,56.66,39.73,77.21,67.28,23.31,31.25,37.53,70.3,34.33,109.16,16.29-13.99,25.04-36.28,22.63-57.62,25.62,5.4,52.74,9.8,77.58,1.5,24.83-8.31,45.96-33.48,40.77-59.14Zm-252.47-71.21l.25-81.37c32.5,14.41,70.47,43.11,70.47,43.11,0,0-35.86,27.53-70.71,38.26Z"/>
    <path class="uuid-41f4bd2d-014a-45f9-9955-3dc7ce673bb9" d="m1425.86,3383.5c.84-20.08,13.24-37.7,26.27-53s27.54-30.23,34.19-49.2c-14.22,6.38-31.28,6.04-45.23-.9s-24.51-20.35-28-35.53c-4.23,32.37-44.03,61.59-76.6,71.81,3.4-17.05,13.33-32.59,27.87-42.13-28.67-11.6-52.3-35.12-64.04-63.73-26.14,33.52-61.03,60.16-100.26,76.55,13.86,9.17,30.83,13.04,47.44,13.69l-.52,186.82c-9.82,16.76-24.25,29.98-40.71,40.3,44.84-6.88,92.77,13.96,118.33,51.44,13.63-32.73,44.91-57.48,79.9-63.19-14.49-15.86-44.99-28.04-66.47-28.01l-1.39-143.82c10.7-6.77,23.01-12.02,33.32-9,15.1,4.43,27.7,16.61,32.63,31.56,5.31,16.09,2.33,34.96,11.73,49.06,9.78,14.65,32.59,18.35,46.49,7.53-20.03,1.65-35.79-20.16-34.95-40.24Z"/>
    <path class="uuid-41f4bd2d-014a-45f9-9955-3dc7ce673bb9" d="m2947,3480.38c-15.56-17.02-32.36-23.9-55.42-23.88l-.79-140.92c17.47-.83,35.24-4.95,49.81-14.59-42.1-17.59-79.55-46.18-107.61-82.16-12.6,30.71-37.97,55.95-68.74,68.4,15.74,10.33,26.48,27.19,30.04,45.67l-.79,123.52c-5.17,8.56-12.75,15.07-21.16,20.78-17.09-12.18-41.78-20.72-60.35-20.69l-.8-83.03h-.58l-.39-40.57c3.56-18.49,14.3-35.35,30.04-45.67-30.77-12.45-56.13-37.69-68.74-68.4-28.06,35.98-65.51,64.57-107.61,82.16,14.87,9.85,33.09,13.99,50.91,14.69l-.16,57.8h-.17l-.23,82.44c-10.54,17.99-26.03,32.18-43.69,43.26,48.12-7.38,99.57,14.99,127,55.21,11.64-27.97,35.37-50.3,63.48-61.42,44.08.14,91.75,25.7,116.1,61.42,14.62-35.13,32.28-67.87,69.84-74.01Z"/>
    <path class="uuid-41f4bd2d-014a-45f9-9955-3dc7ce673bb9" d="m1726.42,3487.16s0-143.67,3.32-156.7c3.32-13.03,11.19-25.57,23.38-31.25-62.35,4.24-125.85-28.03-159.17-80.9-10.1,13.31-23.86,25.24-37.43,34.98-13.57,9.74-27.6,18.99-39.72,30.49-12.11,11.5-22.37,25.61-26.31,41.85-3.94,16.23-.72,34.77,10.92,46.75,11.64,11.98,32.22,15.3,45.56,5.24,6.23-4.7,10.51-11.71,17.03-15.99,6.52-4.29,17.22-4.24,20.3,2.93-2.97-9.13-10.72-16.56-19.96-19.14-9.25-2.59-19.72-.26-27,6.01-2.58,2.22-4.8,4.92-7.72,6.68-9.82,5.95-23.79-2.31-26.12-13.56s4.42-22.81,13.71-29.56c9.29-6.75,20.74-9.69,31.88-12.48,19.88,23.35,47.18,40.28,76.93,47.71-36.74,39.18-98.01,55.27-149.03,38.47l-1.64,95.43c-1.5,9.36-8.54,18.27-17.25,22.03,44.01,4.18,85.84,27.68,112.31,63.09,9.14-29.33,39.13-50.78,69.84-49.94,26.62.73,49.11,24.94,61.73,48.38,19.82-32.94,52.84-60.92,88.27-75.84-19.75-12.01-40.73-4.68-63.84-4.68Zm-95.52-5.34c-6.45,2.81-12.65,5.43-17.04,10.93-.75,1.96-1.33,2.24-2.08,4.2-13.96-19.88-34.14-35.32-56.97-43.6-1.17-14.75-2.34-29.49-3.51-44.24,30.86-1.35,60.11-15.03,80.89-37.89l-1.3,110.6Z"/>
    <path class="uuid-41f4bd2d-014a-45f9-9955-3dc7ce673bb9" d="m2102.01,3495.34c28.26,6.56,53.63,24.75,68.9,49.4,22.28-28.14,49.96-50.68,81.99-66.87-8.66-4.43-20.73-4.99-30.46-4.99l-.43-166.53c5.16-6.23,11.43-9.93,17.34-14.9-5.76-.81-10.09-2.31-15.53-4.37-33.91-12.81-64.55-41.87-76.67-76.03-7.88,15.3-18.14,29.36-30.23,41.6-5.91,5.99-12.26,11.54-18.98,16.6-4.86,3.66-19.05,13.55-19.05,13.55,0,0-14.57-9.27-19.54-13.24-6.64-5.3-12.91-11.07-18.75-17.24-11.68-12.34-20.35-26.18-28.14-41.28-12.24,30.72-34.4,55.96-65.37,67.57-33.35-14.28-63.06-37-82.58-67.57-28.65,36.75-73.06,65.1-118.42,75.8,19.31,13.21,41.11,20.31,64.35,17.65l-1.96,177.25c-18.77,12.03-36.64,24.79-52.02,40.93,38.38-16.55,89.95-4.95,120.29,23.81,13.7-27.85,47.88-57.52,75.81-69.55-8.59-5.59-16.76-8.17-33.96-12.47l.34-139.7c10.18-10.77,27.49-17.88,41.58-22.45l3.16,149.23c.3,14.12-5.97,27.57-16.97,36.43l-.18.14c28.26,6.56,67.61,53.57,79.07,91.39,9.17-37.82,51.45-86.37,83.48-102.55-12.54-10.77-27.62-12.05-44.06-15.53l-2.14-134.4c10.18-10.77,20.2-18.12,34.29-22.69,0,0,13.85,3.81,24.25,16.86l.35,122.02c.05,19.12-6.92,37.59-19.59,51.91l-.2.22Z"/>
    <path class="uuid-41f4bd2d-014a-45f9-9955-3dc7ce673bb9" d="m2514.36,3718.91c-8.99-7.49-20.04-13.2-31.75-13.27-11.7-.07-23.88,6.56-27.84,17.57-4.25,11.78,1.42,24.84.07,37.3-1.91,17.72-20.24,31.9-37.87,29.3,11.91,3.71,24.25,7.47,36.64,6,12.39-1.46,24.9-9.63,27.3-21.87,1.3-6.65-7.13-23.34-7.22-30.12-.09-6.78,2.32-14.53,8.61-17.06,5.11-2.05,16.86,2.39,21.2,10.89,2.51,4.9,5.66,12.96,6.55,18.4,7.83,47.56-41.79,101.07-98.32,67.43-13.31-7.92-32-27.38-31.76-86.97,0,0-.67-193.82-1.1-220.46,9.02,3.06,27.72,16.74,35.28,22.51,9.5,7.26,17.14,17.36,19.9,28.99,23.96-57.05,82.65-98.05,143.99-106.21-.16,0-.32,0-.48,0-25.79-.5-45.88-22.84-46.13-48.64l-.92-95.61c3.31-17.22,13.33-32.93,27.99-42.55-28.67-11.6-52.3-35.12-64.04-63.73-19.46,24.95-52.83,62.43-85.52,64.63-27.92-11.96-54.29-36.71-65.75-64.63-26.14,33.52-61.03,60.16-100.26,76.55,13.86,9.17,30.83,13.04,47.43,13.69l-.06,90.52h-.25l-.06,21.78h.29l-.04,60.28c-8.93,3.01-17.72,6.37-26.23,10.2-31.5,14.15-63.21,46.62-82.8,75.06-13.85,20.11-18.62,37.53-27.2,54.02,31.71-38.81,75.26-68.69,122.08-85.62,4.64-1.68,9.36-3.1,14.11-4.36l-.11,150.51-.28.05c.69,15.72-3.23,31.62-11.14,45.21-5.19,8.92-12.71,17.26-22.72,19.78-10,2.52-22.39-3.09-24.17-13.24-2.46-14,14.46-24.07,17.09-38.04,2.13-11.32-7.54-23.37-19.06-23.74,5.86,1.64,8.76,8.82,7.49,14.78-1.27,5.95-5.61,10.75-10.21,14.73-4.6,3.98-9.7,7.52-13.35,12.39-9.86,13.12-5.9,33.45,6.36,44.36,12.26,10.91,30.55,13.19,46.4,8.91,20.16-5.45,37.31-21.01,44.69-40.55-2.06,35.34,12.72,70.25,35.21,97.59,22.06,26.82,52.6,47.74,86.89,53.27,34.28,5.53,63.71-10.53,85.12-37.87,13.32-17.01,19.47-43.27,17.19-64.75-2.28-21.48-4.63-33.57-21.22-47.4Zm-109.99-423.31c16.9,9.74,26.07,8.02,37.24,5.45l-.43,176.33c-8.17-7.74-32.14-15.53-60.54-17.26l-1.43-143.03c1.49-7.76,9.1-19.21,25.15-21.5Z"/>
    <path class="uuid-41f4bd2d-014a-45f9-9955-3dc7ce673bb9" d="m3292.13,3447.53c-52.91-11.27-50.5-63.21-29.34-97.39,3.14-5.07,6.8-9.82,10.95-14.14-32.26,7.7-68.74-10.43-82.08-40.8-15.16,21.11-26.15,42.16-46,58.94-18.12-7.26-37.62-11.04-57.14-11.08l-2.31-77.58c6.31-4.17,9.71-8.67,13.52-15.2,10.05,16.55,22.18,34.62,41.15,38.5,9.37,1.91,28.41-.34,37.6-3.22,18.33-5.73,26-8.91,42.4-18.91,14.04-8.56,28.27-23.27,37.66-36.87,8.53-12.34,13.13-28,9.74-42.61-3.4-14.61-15.91-27.42-30.87-28.57-8.37-.65-16.75,2.18-25.1,1.34-8.36-.84-17.33-7.98-15.18-16.1-6.48,7.7,1.29,19.7,10.51,23.73,12.67,5.53,28.56,4.22,35.42,20.56,3.9,9.28,1.93,20.32-4.42,28.14-14.47,17.82-39.22,16.97-58.68,8.68-22.29-9.49-41.9-32.89-35.53-56.27-40.86,53.19-100.98,91.25-166.54,105.42,6.8,14.18,14.84,27.52,28.94,34.47l.32,53.2c-14.78,1.22-24.07,12.64-30.72,25.9,34.93-8.37,74.14,5.1,96.57,33.15,13.85-31.71,44.4-52.96,78.94-50.9,0,9.17,1.15,18.86,1.15,28.02l.18,58.94c-35.7-20.54-73.14-24.86-113.72-17.83-40.58,7.03-78.47,28.65-105.18,60-16.45,19.32-28.96,43.11-29.87,68.47-.91,25.36,11.67,52.06,34.5,63.15,22.82,11.1,54.82,1.88,64.34-21.65,1.83-4.52,2.86-9.41,5.48-13.52,6.25-9.82,20.65-12.28,31.07-7.1,10.42,5.18,16.92,16.33,19.03,27.78,10.84-25.83-10.62-62.15-44.76-53.09-14.5,3.85-25.93,15.15-31.64,29.02-1.34,3.26-2.65,6.54-4.19,9.7-3.79,7.78-9.69,15.33-18.08,17.44-9.13,2.3-19.04-2.85-24.21-10.71-5.17-7.87-6.23-17.84-5.05-27.18,3.7-29.41,27.52-52.81,54-66.13,21.94-11.04,47.97-16.77,71.2-8.78,23.23,7.99,41.53,32.73,36.31,56.74,44.3-56.04,102.6-110.89,200.01-115.47l-.38-.19Z"/>
  </g>
</svg>